<svg width="194" height="32" viewBox="0 0 194 32" fill="none" xmlns="http://www.w3.org/2000/svg">
<path d="M9.61931 14.539C10.5812 14.5604 11.5325 14.571 12.473 14.571C13.4136 14.5497 14.3435 14.571 15.2626 14.6352C15.7115 14.6565 16.0429 14.7634 16.2566 14.9558C16.4918 15.1268 16.62 15.4261 16.6414 15.8536C16.6628 16.6659 16.6628 17.4568 16.6414 18.2264C16.6414 18.9959 16.62 19.7868 16.5773 20.5991C16.5773 20.9625 16.4383 21.2404 16.1604 21.4328C15.8825 21.6038 15.5619 21.6893 15.1985 21.6893C14.2793 21.7321 13.3067 21.7641 12.2806 21.7855C11.276 21.7855 10.2927 21.7855 9.33073 21.7855C9.37348 22.8543 9.39486 23.8483 9.39486 24.7675C9.41623 25.6653 9.41623 26.5738 9.39486 27.493C9.39486 27.7709 9.37348 27.9953 9.33073 28.1663C9.28797 28.3373 9.21316 28.4763 9.10628 28.5832C9.02077 28.69 8.89251 28.7755 8.7215 28.8397C8.55049 28.8824 8.32604 28.9145 8.04815 28.9359C7.5565 28.9786 7.06485 29 6.57319 29C6.08154 29 5.58989 29 5.09823 29C4.54245 29 3.98667 29 3.43089 29C2.89648 28.9786 2.35139 28.9572 1.7956 28.9359C1.41083 28.9359 1.13294 28.8717 0.961931 28.7435C0.812297 28.5939 0.716104 28.316 0.673351 27.9098C0.651975 27.7602 0.641287 27.5999 0.641287 27.4288C0.641287 27.2578 0.641287 27.0761 0.641287 26.8838C0.662663 24.0621 0.673351 21.2511 0.673351 18.4508C0.694728 15.6505 0.705416 12.8396 0.705416 10.0179C0.705416 9.18423 0.694728 8.33987 0.673351 7.48482C0.673351 6.60839 0.673351 5.76403 0.673351 4.95173C0.694728 4.60971 0.716104 4.25701 0.73748 3.89361C0.758856 3.50884 0.822985 3.16682 0.929866 2.86755C1.03675 2.56828 1.19707 2.32246 1.41083 2.13007C1.64597 1.91631 1.95593 1.79874 2.3407 1.77736C3.58052 1.71323 4.86309 1.67048 6.18842 1.6491C7.51375 1.62773 8.84976 1.62773 10.1965 1.6491C11.5432 1.6491 12.8792 1.65979 14.2045 1.68117C15.5298 1.70255 16.8124 1.70255 18.0522 1.68117C18.3301 1.68117 18.5439 1.7453 18.6935 1.87356C18.8645 2.00181 18.9928 2.17282 19.0783 2.38658C19.1638 2.60035 19.2065 2.84617 19.2065 3.12407C19.2279 3.38058 19.2386 3.64778 19.2386 3.92567C19.1959 5.01586 19.1745 6.10605 19.1745 7.19624C19.1959 8.26505 19.1638 9.34455 19.0783 10.4347C19.0569 10.8836 18.9393 11.1936 18.7256 11.3646C18.5332 11.5142 18.1805 11.5997 17.6675 11.6211C16.3421 11.6425 14.9634 11.6532 13.5312 11.6532C12.1203 11.6532 10.8164 11.6639 9.61931 11.6852V14.539Z" fill="#1F87FC"/>
<path d="M37.3603 26.8056C36.8437 27.7319 36.1846 28.3732 35.383 28.7295C34.5814 29.0858 33.6996 29.2906 32.7377 29.3441C31.562 29.4331 30.3774 29.4509 29.1839 29.3975C27.9904 29.3619 26.788 29.3619 25.5766 29.3975C24.8107 29.4153 24.1248 29.255 23.5192 28.9165C22.9313 28.5781 22.4236 28.1416 21.9961 27.6072C21.5686 27.055 21.2301 26.4494 20.9808 25.7903C20.7492 25.1312 20.6067 24.481 20.5532 23.8397C20.3751 22.183 20.286 20.5442 20.286 18.9231C20.286 17.2843 20.3306 15.6365 20.4196 13.9799C20.4553 12.9645 20.5978 11.9937 20.8472 11.0674C21.1144 10.1411 21.5864 9.26821 22.2633 8.44879C22.6018 8.02126 23.0115 7.69171 23.4925 7.46013C23.9734 7.22856 24.4811 7.05933 25.0155 6.95245C25.5499 6.82776 26.0932 6.74759 26.6455 6.71197C27.1977 6.67634 27.7143 6.64071 28.1952 6.60509C28.9078 6.55165 29.6114 6.53383 30.3061 6.55165C31.0009 6.55165 31.7134 6.55165 32.4438 6.55165C33.2276 6.55165 33.949 6.67634 34.6081 6.92573C35.2672 7.17512 35.8372 7.53139 36.3182 7.99454C36.7992 8.43988 37.1822 8.9921 37.4672 9.6512C37.7522 10.2925 37.9214 11.005 37.9749 11.7888C38.1174 13.8018 38.2153 15.7523 38.2688 17.6406C38.3222 19.511 38.2777 21.4438 38.1352 23.4389C38.0996 24.0623 38.0283 24.6502 37.9214 25.2024C37.8145 25.7546 37.6275 26.289 37.3603 26.8056ZM31.2146 14.8617C31.1434 14.2382 30.9296 13.8107 30.5733 13.5791C30.2349 13.3475 29.8608 13.2763 29.4511 13.3653C29.0592 13.4366 28.7029 13.6503 28.3823 14.0066C28.0616 14.3629 27.9013 14.8082 27.9013 15.3426C27.9191 16.162 27.928 16.9815 27.928 17.8009C27.928 18.6025 27.9369 19.4308 27.9548 20.2859C27.9548 21.1587 28.124 21.7911 28.4624 22.183C28.8187 22.5571 29.2017 22.7352 29.6114 22.7174C30.0211 22.6996 30.3952 22.5037 30.7337 22.1296C31.0899 21.7377 31.2681 21.2033 31.2681 20.5264C31.2859 19.6179 31.2859 18.6738 31.2681 17.694C31.2681 16.7143 31.2503 15.7701 31.2146 14.8617Z" fill="#FF2B25"/>
<path d="M56.7432 24.1336C56.2266 25.0599 55.5675 25.7012 54.7659 26.0575C53.9643 26.4138 53.0826 26.6186 52.1206 26.6721C50.9449 26.7611 49.7603 26.7789 48.5668 26.7255C47.3733 26.6899 46.1709 26.6899 44.9596 26.7255C44.1936 26.7433 43.5078 26.583 42.9021 26.2445C42.3143 25.9061 41.8066 25.4696 41.3791 24.9352C40.9515 24.383 40.6131 23.7774 40.3637 23.1183C40.1321 22.4592 39.9896 21.809 39.9362 21.1677C39.758 19.511 39.669 17.8722 39.669 16.2511C39.669 14.6123 39.7135 12.9645 39.8026 11.3079C39.8382 10.2925 39.9807 9.32168 40.2301 8.39538C40.4973 7.46907 40.9694 6.59621 41.6463 5.77679C41.9847 5.34926 42.3944 5.01971 42.8754 4.78814C43.3564 4.55656 43.8641 4.38733 44.3985 4.28045C44.9329 4.15576 45.4762 4.0756 46.0284 4.03997C46.5806 4.00434 47.0972 3.96872 47.5782 3.93309C48.2907 3.87965 48.9943 3.86184 49.6891 3.87965C50.3838 3.87965 51.0963 3.87965 51.8267 3.87965C52.6105 3.87965 53.3319 4.00434 53.991 4.25373C54.6501 4.50312 55.2202 4.85939 55.7011 5.32254C56.1821 5.76788 56.5651 6.3201 56.8501 6.9792C57.1351 7.62049 57.3044 8.33303 57.3578 9.11683C57.5003 11.1298 57.5983 13.0803 57.6517 14.9686C57.7052 16.839 57.6606 18.7718 57.5181 20.7669C57.4825 21.3903 57.4112 21.9782 57.3044 22.5304C57.1975 23.0826 57.0104 23.617 56.7432 24.1336ZM50.5976 12.1897C50.5263 11.5662 50.3125 11.1387 49.9563 10.9071C49.6178 10.6755 49.2437 10.6043 48.834 10.6933C48.4421 10.7646 48.0859 10.9783 47.7652 11.3346C47.4446 11.6909 47.2842 12.1362 47.2842 12.6706C47.3021 13.49 47.311 14.3095 47.311 15.1289C47.311 15.9305 47.3199 16.7588 47.3377 17.6139C47.3377 18.4867 47.5069 19.1191 47.8454 19.511C48.2016 19.8851 48.5846 20.0632 48.9943 20.0454C49.4041 20.0276 49.7781 19.8317 50.1166 19.4576C50.4729 19.0657 50.651 18.5313 50.651 17.8544C50.6688 16.9459 50.6688 16.0018 50.651 15.022C50.651 14.0423 50.6332 13.0981 50.5976 12.1897Z" fill="#FFB900"/>
<path d="M59.239 18.2551C59.2212 16.6341 59.1944 15.0398 59.1588 13.4722C59.1232 11.8868 59.0965 10.2836 59.0786 8.66255V7.96782C59.1499 7.4156 59.2924 7.04152 59.5062 6.84557C59.7377 6.63181 60.1207 6.52493 60.6551 6.52493C61.5993 6.52493 62.5256 6.52493 63.4341 6.52493C64.3425 6.52493 65.2688 6.54274 66.213 6.57837C66.783 6.61399 67.353 6.64962 67.9231 6.68525C68.4931 6.72087 69.0631 6.80104 69.6332 6.92573C71.1829 7.22856 72.4388 7.86094 73.4007 8.82287C74.3805 9.76699 75.0752 10.9961 75.4849 12.5103C75.8234 13.6325 76.046 14.7726 76.1529 15.9305C76.2776 17.0705 76.2954 18.2373 76.2064 19.4308C76.1351 20.2324 75.9748 21.034 75.7254 21.8357C75.4938 22.6194 75.191 23.3854 74.8169 24.1336C74.0687 25.4162 73.1602 26.4761 72.0914 27.3133C71.0404 28.1327 69.7846 28.7117 68.3239 29.0501C67.4154 29.2639 66.4891 29.3708 65.545 29.3708C64.7433 29.353 63.9506 29.3441 63.1668 29.3441C62.4009 29.3441 61.6171 29.3441 60.8155 29.3441C60.2454 29.3441 59.8357 29.2283 59.5863 28.9967C59.3548 28.7651 59.239 28.3376 59.239 27.7141C59.2212 26.0753 59.2122 24.481 59.2122 22.9312C59.2301 21.3814 59.239 19.8227 59.239 18.2551ZM66.7741 22.3166C67.3085 22.4413 67.7004 22.3968 67.9498 22.183C68.1992 21.9514 68.3773 21.6664 68.4842 21.328C68.5198 21.132 68.5554 20.945 68.5911 20.7668C68.6445 20.5709 68.6712 20.3749 68.6712 20.179C68.6712 18.9855 68.6445 17.7831 68.5911 16.5718C68.5733 16.3046 68.5465 16.0373 68.5109 15.7701C68.4753 15.5029 68.4129 15.2268 68.3239 14.9418C68.1814 14.4609 67.9765 14.0868 67.7093 13.8196C67.4599 13.5345 67.0502 13.4633 66.4802 13.6058C66.5158 14.9774 66.5603 16.4292 66.6138 17.9612C66.685 19.4754 66.7385 20.9272 66.7741 22.3166Z" fill="#00AB47"/>
<path d="M90.368 17.988C90.3324 17.1329 90.3769 16.2957 90.5016 15.4763C90.6441 14.6569 90.849 13.8463 91.1162 13.0447C91.4368 11.9581 91.9089 10.9873 92.5324 10.1322C93.1558 9.25935 93.9129 8.50228 94.8036 7.86099C95.9258 7.04157 97.1104 6.52498 98.3574 6.31121C99.6222 6.09745 100.842 6.13308 102.018 6.4181C103.194 6.70311 104.289 7.21971 105.305 7.96787C106.32 8.71604 107.157 9.64234 107.816 10.7468C108.012 11.0674 108.084 11.3614 108.03 11.6286C107.995 11.8958 107.852 12.163 107.603 12.4302C107.033 13.0002 106.471 13.5524 105.919 14.0868C105.367 14.6212 104.815 15.1645 104.263 15.7168C103.978 15.9661 103.755 16.0819 103.595 16.0641C103.434 16.0285 103.283 15.8325 103.14 15.4763C102.784 14.639 102.187 14.0245 101.35 13.6326C100.851 13.3832 100.415 13.3297 100.041 13.4723C99.6845 13.5969 99.3817 13.8285 99.1323 14.167C98.9007 14.5054 98.7137 14.8973 98.5712 15.3427C98.4286 15.788 98.3307 16.1888 98.2772 16.5451C98.206 17.0082 98.1882 17.4625 98.2238 17.9078C98.2594 18.3532 98.295 18.8074 98.3307 19.2706C98.3307 19.3596 98.3307 19.4398 98.3307 19.511C98.3485 19.5645 98.3663 19.6357 98.3841 19.7248C98.5801 20.6867 98.9987 21.3013 99.64 21.5685C100.281 21.8179 101.012 21.6843 101.831 21.1677C102.027 21.0252 102.214 20.8738 102.392 20.7135C102.588 20.5531 102.784 20.3928 102.98 20.2325C103.283 19.9653 103.532 19.8317 103.728 19.8317C103.942 19.8317 104.182 19.992 104.45 20.3126C104.966 20.9005 105.474 21.5151 105.973 22.1563C106.471 22.7798 106.97 23.4211 107.469 24.0802C107.79 24.4899 107.932 24.8373 107.897 25.1223C107.879 25.3895 107.701 25.7191 107.362 26.111C106.471 27.1085 105.465 27.8923 104.343 28.4623C103.22 29.0324 102.063 29.3708 100.869 29.4777C99.6756 29.6024 98.491 29.4866 97.3153 29.1303C96.1574 28.7741 95.0975 28.1506 94.1356 27.2599C92.9065 26.2267 91.9891 25.051 91.3834 23.7328C90.7955 22.4146 90.4749 20.945 90.4215 19.324C90.4037 19.2171 90.3947 19.1102 90.3947 19.0034C90.3947 18.8787 90.3858 18.7451 90.368 18.6025V17.988Z" fill="#1F87FC"/>
<mask id="mask0_516_22" style="mask-type:alpha" maskUnits="userSpaceOnUse" x="110" y="1" width="23" height="29">
<path d="M131.111 25.9539C130.491 27.0655 129.7 27.835 128.738 28.2625C127.776 28.69 126.718 28.9359 125.564 29C124.153 29.1069 122.732 29.1283 121.299 29.0641C119.867 29.0214 118.424 29.0214 116.971 29.0641C116.052 29.0855 115.229 28.8931 114.502 28.487C113.796 28.0808 113.187 27.5571 112.674 26.9158C112.161 26.2532 111.755 25.5264 111.456 24.7354C111.178 23.9445 111.007 23.1643 110.943 22.3947C110.729 20.4068 110.622 18.4401 110.622 16.4949C110.622 14.5283 110.675 12.551 110.782 10.563C110.825 9.34455 110.996 8.17955 111.295 7.06798C111.616 5.95642 112.182 4.90898 112.995 3.92567C113.401 3.41264 113.893 3.01718 114.47 2.73929C115.047 2.4614 115.656 2.25833 116.297 2.13007C116.939 1.98044 117.591 1.88424 118.253 1.84149C118.916 1.79874 119.536 1.75599 120.113 1.71323C120.968 1.64911 121.812 1.62773 122.646 1.6491C123.48 1.6491 124.335 1.6491 125.211 1.6491C126.152 1.6491 127.018 1.79874 127.809 2.09801C128.599 2.39727 129.283 2.8248 129.861 3.38058C130.438 3.91499 130.897 4.57765 131.239 5.36857C131.581 6.13811 131.784 6.99316 131.849 7.93372C132.02 10.3492 132.137 12.6899 132.201 14.9558C132.265 17.2003 132.212 19.5196 132.041 21.9138C131.998 22.6619 131.913 23.3674 131.784 24.03C131.656 24.6927 131.432 25.334 131.111 25.9539ZM123.736 11.6211C123.651 10.873 123.394 10.3599 122.967 10.082C122.561 9.80414 122.112 9.71863 121.62 9.82551C121.15 9.91102 120.722 10.1675 120.338 10.5951C119.953 11.0226 119.76 11.557 119.76 12.1983C119.782 13.1816 119.792 14.1649 119.792 15.1482C119.792 16.1101 119.803 17.1041 119.824 18.1302C119.824 19.1776 120.028 19.9365 120.434 20.4068C120.861 20.8557 121.321 21.0694 121.812 21.048C122.304 21.0267 122.753 20.7915 123.159 20.3426C123.587 19.8723 123.8 19.2311 123.8 18.4188C123.822 17.3286 123.822 16.1956 123.8 15.0199C123.8 13.8442 123.779 12.7113 123.736 11.6211Z" fill="white"/>
</mask>
<g mask="url(#mask0_516_22)">
<path fill-rule="evenodd" clip-rule="evenodd" d="M106.881 0L122.112 15.097L137.342 0H106.881Z" fill="#1F87FC"/>
<path d="M137.342 30.1939V0L122.112 15.097L137.342 30.1939Z" fill="#FF2B25"/>
<path d="M106.881 30.1939H137.342L122.112 15.097L106.881 30.1939Z" fill="#FFB900"/>
<path d="M106.881 0V30.1939L122.112 15.097L106.881 0Z" fill="#00AB47"/>
</g>
<path d="M141.938 19.3774C141.938 20.0009 142.027 20.5887 142.205 21.1409C142.562 22.0316 143.238 22.4502 144.236 22.3968C144.592 22.3612 144.904 22.2097 145.171 21.9425C145.456 21.6575 145.652 21.3012 145.759 20.8737C145.795 20.7312 145.821 20.5887 145.839 20.4462C145.875 20.2859 145.893 20.1345 145.893 19.992C145.946 17.979 145.919 16.0106 145.813 14.0868C145.706 12.1629 145.634 10.2123 145.599 8.23502C145.51 7.11277 146.008 6.54274 147.095 6.52493C147.665 6.4893 148.244 6.46258 148.832 6.44476C149.438 6.40914 150.034 6.39132 150.622 6.39132C150.943 6.39132 151.255 6.39132 151.557 6.39132C151.86 6.37351 152.136 6.39132 152.386 6.44476C152.635 6.49821 152.84 6.60509 153 6.76541C153.161 6.90792 153.267 7.13949 153.321 7.46013C153.642 9.56213 153.838 11.7354 153.909 13.9799C153.998 16.2066 153.944 18.3798 153.748 20.4996C153.695 21.3191 153.597 22.0672 153.455 22.7441C153.312 23.4211 153.098 24.0445 152.813 24.6146C152.546 25.1846 152.19 25.719 151.744 26.2178C151.299 26.6987 150.747 27.1619 150.088 27.6072C148.77 28.4088 147.407 28.9343 146 29.1837C144.592 29.4331 143.132 29.4331 141.617 29.1837C141.03 29.0947 140.433 28.9878 139.827 28.8631C139.239 28.7384 138.687 28.5603 138.171 28.3287C136.941 27.7943 135.979 27.0728 135.285 26.1643C134.59 25.238 134.171 24.1069 134.029 22.7709C133.975 22.3255 133.922 21.8891 133.869 21.4616C133.833 21.0162 133.815 20.5709 133.815 20.1256C133.833 18.7895 133.86 17.4624 133.895 16.1442C133.949 14.8082 133.993 13.4722 134.029 12.1362C134.047 11.5127 134.065 10.8981 134.082 10.2925C134.1 9.68683 134.127 9.07226 134.162 8.44879C134.162 8.30628 134.162 8.16377 134.162 8.02126C134.162 7.87875 134.189 7.74515 134.243 7.62046C134.35 7.21075 134.483 6.94354 134.643 6.81885C134.822 6.67634 135.08 6.61399 135.418 6.63181C136.291 6.66743 137.164 6.68525 138.037 6.68525C138.91 6.68525 139.783 6.69415 140.656 6.71197C141.564 6.71197 142.027 7.1484 142.045 8.02126C142.134 9.98075 142.143 11.8957 142.072 13.7661C142 15.6365 141.956 17.507 141.938 19.3774Z" fill="#FF2B25"/>
<path d="M169.888 19.7249C170.6 20.0277 171.054 20.4463 171.25 20.9807C171.464 21.5151 171.571 22.103 171.571 22.7442C171.571 23.2608 171.58 23.724 171.598 24.1337C171.633 24.5434 171.651 24.9977 171.651 25.4964C171.633 25.9952 171.544 26.3515 171.384 26.5652C171.241 26.779 170.939 26.8948 170.475 26.9126C168.854 26.9661 167.198 26.9661 165.505 26.9126C165.042 26.8948 164.677 26.8146 164.41 26.6721C164.143 26.5296 163.991 26.2268 163.956 25.7636C163.902 25.247 163.884 24.6948 163.902 24.107C163.938 23.5191 163.938 22.9669 163.902 22.4503C163.902 21.8803 163.769 21.4973 163.501 21.3013C163.252 21.1054 162.86 21.0698 162.326 21.1945C162.343 21.5864 162.361 21.9337 162.379 22.2366C162.397 22.5216 162.415 22.8689 162.433 23.2787C162.468 23.9199 162.468 24.5969 162.433 25.3094C162.397 25.7547 162.263 26.111 162.032 26.3782C161.8 26.6276 161.453 26.7701 160.99 26.8057C160.241 26.8592 159.493 26.8948 158.745 26.9126C158.015 26.9126 157.267 26.8859 156.501 26.8324C156.02 26.8146 155.672 26.6899 155.459 26.4584C155.263 26.2268 155.165 25.8527 155.165 25.3361C155.2 23.0382 155.218 20.8026 155.218 18.6293C155.218 16.4561 155.227 14.2205 155.245 11.9225V5.91046C155.245 5.37606 155.352 4.99306 155.565 4.76149C155.797 4.52991 156.171 4.40522 156.688 4.3874C157.739 4.33396 158.772 4.29834 159.787 4.28052C160.803 4.2449 161.827 4.20927 162.86 4.17364C163.377 4.17364 163.893 4.17364 164.41 4.17364C164.944 4.17364 165.479 4.18255 166.013 4.20036C166.637 4.20036 167.233 4.28943 167.803 4.46757C168.391 4.62789 168.952 4.85946 169.487 5.16229C169.985 5.46512 170.386 5.82139 170.689 6.2311C170.992 6.64082 171.25 7.08615 171.464 7.56712C171.713 8.13715 171.918 8.84969 172.079 9.70474C172.257 10.5598 172.372 11.4505 172.426 12.3768C172.479 13.2853 172.47 14.167 172.399 15.0221C172.328 15.8593 172.177 16.5451 171.945 17.0795C171.517 18.0237 170.832 18.9054 169.888 19.7249ZM162.994 15.129C163.617 15.4674 164.116 15.512 164.49 15.2626C164.882 15.0132 165.087 14.5233 165.105 13.7929C165.122 13.3654 165.122 12.9201 165.105 12.4569C165.087 11.9938 165.042 11.5306 164.971 11.0675C164.828 10.1055 164.267 9.72256 163.288 9.9185C163.056 9.95413 162.887 10.0254 162.78 10.1323C162.673 10.2213 162.628 10.3906 162.646 10.64C162.7 11.3881 162.753 12.1363 162.807 12.8845C162.878 13.6326 162.94 14.3808 162.994 15.129Z" fill="#FFB900"/>
<path d="M187.694 16.9994C187.73 18.6382 187.765 20.2593 187.801 21.8625C187.837 23.4657 187.863 25.0867 187.881 26.7256C187.881 27.5272 187.721 28.0883 187.4 28.4089C187.079 28.7296 186.518 28.8899 185.717 28.8899C184.185 28.8899 182.662 28.8365 181.148 28.7296C180.987 28.7296 180.827 28.7207 180.667 28.7029C180.524 28.6672 180.373 28.6316 180.212 28.596C179.91 28.5069 179.696 28.3911 179.571 28.2486C179.446 28.0883 179.384 27.8567 179.384 27.5539C179.366 27.3045 179.357 27.0551 179.357 26.8057C179.375 26.5385 179.384 26.2802 179.384 26.0308V15.2893V14.3808H177.647C177.291 14.3808 176.926 14.3897 176.552 14.4075C176.195 14.4075 175.821 14.3897 175.429 14.3541C174.948 14.2828 174.583 14.1225 174.334 13.8731C174.085 13.6059 173.942 13.214 173.906 12.6974C173.871 11.8602 173.853 11.0229 173.853 10.1857C173.853 9.34847 173.862 8.50233 173.88 7.64728C173.897 7.04162 174.04 6.623 174.307 6.39143C174.592 6.14204 175.029 6.02625 175.616 6.04406C177.95 6.06188 180.266 6.07969 182.564 6.09751C184.88 6.09751 187.204 6.11532 189.538 6.15095C189.787 6.15095 190.045 6.14204 190.313 6.12423C190.58 6.10641 190.838 6.0886 191.088 6.07079C191.533 6.03516 191.889 6.11532 192.156 6.31127C192.424 6.50722 192.575 6.81895 192.611 7.24648C192.664 7.53149 192.682 7.83432 192.664 8.15497C192.646 8.4578 192.637 8.76063 192.637 9.06346C192.62 9.68693 192.602 10.3015 192.584 10.9072C192.566 11.495 192.53 12.0829 192.477 12.6707C192.424 13.1873 192.308 13.5168 192.13 13.6593C191.951 13.784 191.595 13.8553 191.061 13.8731C190.526 13.8909 189.983 13.9176 189.431 13.9533C188.879 13.9889 188.3 14.0245 187.694 14.0602V16.9994Z" fill="#00AB47"/>
</svg>
